<svg xmlns="http://www.w3.org/2000/svg" xmlns:xlink="http://www.w3.org/1999/xlink" version="1.1" x="0px" y="0px" viewBox="0 0 100 125" enable-background="new 0 0 100 100" xml:space="preserve"><path fill-rule="evenodd" clip-rule="evenodd" d="M32.998,38.604c3.909-6.505,11.002-10.526,19.045-10.333  c12.555,0.301,22.795,10.24,22.795,22.795s-10.24,22.795-22.795,22.795s-22.795-10.24-22.674-22.696L29.49,8.775L5.01,22.985  c3.871,0.953,4.582,4.693,4.457,7.504L9.384,51.23c0,23.333,19.163,42.497,42.66,42.497s42.66-19.163,42.66-42.66  S75.54,8.407,52.044,8.407c-6.608,0-12.874,1.516-18.681,4.333L32.998,38.604L32.998,38.604z"/></svg>